<svg version="1.1" preserveAspectRatio="none" xmlns="http://www.w3.org/2000/svg" width="500" height="500" viewBox="0 0 500 500"><rect width="100%" height="100%" fill="#F5F1EE" fill-opacity="1"/><svg viewBox="-20.1205 23.969 361.6666 194.3169" width="333" height="178.91485611333752" x="83.5px" y="160.5426px" xmlns="http://www.w3.org/2000/svg" xmlns:xlink="http://www.w3.org/1999/xlink" preserveAspectRatio="none"><defs></defs><style>.companyName {fill:#9D5D35;fill-opacity:1;}.icon1 {fill:#D6C4B0;fill-opacity:1;}.icon2 {fill:#5D949E;fill-opacity:1;}.icon3 {fill:#958868;fill-opacity:1;}.icon3-str {stroke:#958868;stroke-opacity:1;}</style><g opacity="1" transform="rotate(0 88.3795 23.969)">
<svg width="144.6667" height="144.3169" x="88.3795" y="23.969" version="1.1" preserveAspectRatio="none" viewBox="10.125 10.03499984741211 80.15875244140625 79.96499633789062">
  <g transform="matrix(1 0 0 1 0 0)" class="icon1"><path d="M85.974,21.176l1.708-1.708c0.73-0.73,1.132-1.701,1.132-2.733s-0.402-2.003-1.132-2.732l-1.359-1.359  c-1.506-1.508-3.959-1.508-5.467,0l-1.708,1.708l-1.2-1.2c-2.01-2.01-4.682-3.117-7.525-3.117c-2.842,0-5.515,1.107-7.524,3.117  c-3.389,3.389-4.007,8.513-1.859,12.538l-2.375,2.375c-0.006,0.006-0.008,0.015-0.014,0.022c-1.376-1.027-3.332-0.928-4.582,0.322  c-0.665,0.664-1.031,1.548-1.031,2.488s0.366,1.824,1.031,2.488l0.022,0.022c-0.2,0.206-1.376,1.196-6.509,2.547  c-7.69,2.025-14.175,8.611-19.82,20.11c-1.395-0.56-3.104-0.297-4.2,0.797c-0.622,0.621-0.985,1.422-1.081,2.283  c-1.306-0.344-2.752-0.021-3.773,1.001l-8.089,8.09c-0.391,0.391-0.391,1.023,0,1.414l20.059,20.059  C30.864,89.895,31.118,90,31.383,90s0.52-0.105,0.707-0.293l8.089-8.09c0.741-0.74,1.149-1.725,1.149-2.772  c0-0.344-0.06-0.677-0.145-1.001c0.833-0.094,1.643-0.442,2.281-1.08c0.724-0.724,1.123-1.687,1.123-2.711  c0-0.524-0.107-1.031-0.307-1.499c11.489-5.642,18.068-12.124,20.091-19.809c1.177-4.473,1.951-6.179,2.282-6.775l0.287,0.287  c0.686,0.686,1.587,1.028,2.488,1.028c0.901,0,1.802-0.343,2.488-1.028c1.249-1.249,1.348-3.204,0.322-4.582  c0.007-0.006,0.016-0.008,0.022-0.015l2.37-2.37c1.526,0.818,3.239,1.253,5.018,1.253c2.842,0,5.515-1.107,7.524-3.117  c4.149-4.149,4.149-10.9,0-15.05L85.974,21.176z M82.271,14.057c0.728-0.727,1.911-0.727,2.639,0l1.359,1.359  c0.353,0.353,0.546,0.82,0.546,1.318s-0.194,0.967-0.546,1.319l-1.708,1.708l-3.998-3.998L82.271,14.057z M38.766,80.203  l-7.382,7.383L12.739,68.941l7.382-7.383c0.749-0.749,1.968-0.747,2.717,0l7.964,7.964l7.241,7.241c0,0,0,0,0,0l0.723,0.723  c0.363,0.363,0.563,0.846,0.563,1.358S39.128,79.84,38.766,80.203z M42.05,75.35c-0.692,0.692-1.9,0.692-2.593,0l-7.241-7.241  l-7.241-7.241c-0.346-0.347-0.537-0.807-0.537-1.297c0-0.489,0.19-0.949,0.537-1.296c0.693-0.691,1.901-0.69,2.593,0L42.05,72.756  c0.346,0.347,0.537,0.808,0.537,1.297C42.587,74.543,42.397,75.003,42.05,75.35z M62.437,52.234  c-1.887,7.168-8.227,13.284-19.382,18.698L29.393,57.271c5.413-11.155,11.529-17.496,18.697-19.384  c2.832-0.745,6.164-1.836,7.408-3.073l9.715,9.715C64.459,45.558,63.491,48.231,62.437,52.234z M70.503,44.843  c-0.592,0.592-1.557,0.592-2.148,0L55.482,31.97c-0.287-0.287-0.445-0.668-0.445-1.074s0.158-0.787,0.445-1.074  c0.574-0.574,1.575-0.574,2.148,0l12.873,12.873C71.095,43.287,71.095,44.251,70.503,44.843z M70.865,40.228L60.096,29.459  l2.071-2.07c0.228,0.28,0.472,0.551,0.732,0.811l9.226,9.226c0.259,0.259,0.531,0.503,0.811,0.731L70.865,40.228z M85.76,36.012  c-1.632,1.632-3.802,2.531-6.11,2.531c-2.309,0-4.479-0.899-6.111-2.531l-9.226-9.226c-3.369-3.369-3.369-8.853,0-12.222  c1.632-1.632,3.802-2.531,6.11-2.531c2.309,0,4.479,0.899,6.111,2.531l9.226,9.226C89.13,27.159,89.13,32.643,85.76,36.012z"></path><path d="M11.125,89.755c0.552,0,1-0.447,1-1v-2.292c0-0.553-0.448-1-1-1s-1,0.447-1,1v2.292  C10.125,89.308,10.573,89.755,11.125,89.755z"></path><path d="M11.125,80.253c0.552,0,1-0.447,1-1v-2.292c0-0.553-0.448-1-1-1s-1,0.447-1,1v2.292  C10.125,79.806,10.573,80.253,11.125,80.253z"></path><path d="M17.625,84.004v-2.292c0-0.553-0.448-1-1-1s-1,0.447-1,1v2.292c0,0.553,0.448,1,1,1S17.625,84.557,17.625,84.004z"></path><path d="M23.52,88.755v-2.292c0-0.553-0.448-1-1-1s-1,0.447-1,1v2.292c0,0.553,0.448,1,1,1S23.52,89.308,23.52,88.755z"></path></g>
</svg>
</g><g opacity="1" transform="rotate(0 -20.1205 194.2859)">
<svg width="361.6666" height="24" x="-20.1205" y="194.2859" version="1.1" preserveAspectRatio="none" viewBox="1.6016 -26.8359 412.34369999999996 27.3632">
  <g transform="matrix(1 0 0 1 0 0)" class="companyName"><path id="id-D6z1nYkh16" d="M1.60-24.65L1.60-26.84L9.80-26.84L25.57-2.52L41.07-26.84L49.32-26.84L49.32-24.65L43.71-24.65L43.71-2.21L49.32-2.21L49.32 0L35.68 0L35.68-2.21L41.29-2.21L41.29-22.83L26.56 0L24.39 0L9.65-22.93L9.65-2.21L15.23-2.21L15.23 0L1.60 0L1.60-2.21L7.21-2.21L7.21-24.65L1.60-24.65Z M70.57 0L70.57-2.17Q69.67-1.72 68.57-1.24Q67.48-0.76 66.21-0.37Q64.94 0.02 63.52 0.27Q62.09 0.53 60.53 0.53L60.53 0.53Q58.77 0.53 57.34 0.18Q55.92-0.18 54.92-0.87Q53.93-1.56 53.38-2.59Q52.83-3.61 52.83-4.96L52.83-4.96Q52.83-7.05 54.18-8.38Q55.53-9.71 57.90-10.50Q60.27-11.29 63.52-11.66Q66.76-12.03 70.57-12.21L70.57-12.21L70.57-13.13Q70.57-14.16 70-14.90Q69.43-15.64 68.48-16.11Q67.52-16.58 66.26-16.81Q65-17.03 63.59-17.03L63.59-17.03Q61.95-17.03 60.73-16.83Q59.51-16.62 58.67-16.22Q57.83-15.82 57.33-15.24Q56.84-14.67 56.60-13.93L56.60-13.93L54.12-14.51Q54.75-16.70 57.10-17.91Q59.45-19.12 63.52-19.12L63.52-19.12Q65.57-19.12 67.30-18.77Q69.04-18.42 70.30-17.66Q71.56-16.89 72.28-15.67Q72.99-14.45 72.99-12.71L72.99-12.71L72.99-2.21L77.64-2.21L77.64 0L70.57 0ZM70.57-4.51L70.57-10.16Q66.29-10 63.36-9.60Q60.43-9.20 58.62-8.56Q56.82-7.93 56.03-7.06Q55.23-6.19 55.23-5.08L55.23-5.08Q55.23-3.36 56.73-2.46Q58.22-1.56 61.11-1.56L61.11-1.56Q62.34-1.56 63.74-1.84Q65.14-2.11 66.45-2.53Q67.75-2.95 68.85-3.48Q69.94-4.00 70.57-4.51L70.57-4.51Z M111.45 0L111.45-2.21L115.84-2.21L115.84-12.03Q115.84-13.52 115.47-14.48Q115.10-15.45 114.41-16.02Q113.73-16.58 112.76-16.81Q111.80-17.03 110.61-17.03L110.61-17.03Q109.34-17.03 108.13-16.64Q106.91-16.25 105.80-15.64Q104.69-15.04 103.73-14.33Q102.77-13.61 102.05-12.97L102.05-12.97L102.05-12.75L102.05-2.21L106.45-2.21L106.45 0L95.21 0L95.21-2.21L99.61-2.21L99.61-12.03Q99.61-13.52 99.24-14.48Q98.87-15.45 98.17-16.02Q97.48-16.58 96.51-16.81Q95.55-17.03 94.38-17.03L94.38-17.03Q93.07-17.03 91.84-16.64Q90.61-16.25 89.50-15.66Q88.40-15.08 87.46-14.37Q86.52-13.65 85.80-13.01L85.80-13.01L85.80-2.21L90.21-2.21L90.21 0L78.96 0L78.96-2.21L83.36-2.21L83.36-16.41L78.96-16.41L78.96-18.59L85.80-18.59L85.80-15.27Q86.72-16.07 87.75-16.80Q88.79-17.52 89.94-18.06Q91.09-18.59 92.35-18.92Q93.61-19.24 95-19.24L95-19.24Q97.79-19.24 99.45-18.13Q101.11-17.03 101.72-15.08L101.72-15.08Q102.64-15.86 103.73-16.61Q104.82-17.36 106.04-17.95Q107.27-18.54 108.58-18.89Q109.90-19.24 111.25-19.24L111.25-19.24Q113.01-19.24 114.33-18.78Q115.64-18.32 116.52-17.48Q117.40-16.64 117.84-15.44Q118.28-14.24 118.28-12.75L118.28-12.75L118.28-2.21L122.70-2.21L122.70 0L111.45 0Z M142.97 0L142.97-2.17Q142.07-1.72 140.98-1.24Q139.88-0.76 138.61-0.37Q137.34 0.02 135.92 0.27Q134.49 0.53 132.93 0.53L132.93 0.53Q131.17 0.53 129.75 0.18Q128.32-0.18 127.32-0.87Q126.33-1.56 125.78-2.59Q125.23-3.61 125.23-4.96L125.23-4.96Q125.23-7.05 126.58-8.38Q127.93-9.71 130.30-10.50Q132.68-11.29 135.92-11.66Q139.16-12.03 142.97-12.21L142.97-12.21L142.97-13.13Q142.97-14.16 142.40-14.90Q141.84-15.64 140.88-16.11Q139.92-16.58 138.66-16.81Q137.40-17.03 136.00-17.03L136.00-17.03Q134.36-17.03 133.13-16.83Q131.91-16.62 131.07-16.22Q130.23-15.82 129.74-15.24Q129.24-14.67 129.00-13.93L129.00-13.93L126.52-14.51Q127.15-16.70 129.50-17.91Q131.86-19.12 135.92-19.12L135.92-19.12Q137.97-19.12 139.71-18.77Q141.45-18.42 142.71-17.66Q143.96-16.89 144.68-15.67Q145.39-14.45 145.39-12.71L145.39-12.71L145.39-2.21L150.04-2.21L150.04 0L142.97 0ZM142.97-4.51L142.97-10.16Q138.69-10 135.76-9.60Q132.83-9.20 131.03-8.56Q129.22-7.93 128.43-7.06Q127.64-6.19 127.64-5.08L127.64-5.08Q127.64-3.36 129.13-2.46Q130.63-1.56 133.52-1.56L133.52-1.56Q134.75-1.56 136.14-1.84Q137.54-2.11 138.85-2.53Q140.16-2.95 141.25-3.48Q142.34-4.00 142.97-4.51L142.97-4.51Z M151.37-16.41L151.37-18.59L158.20-18.59L158.20-15.08Q159.12-15.96 160.25-16.71Q161.39-17.46 162.70-18.03Q164.00-18.59 165.45-18.92Q166.89-19.24 168.42-19.24L168.42-19.24Q170.23-19.24 171.59-18.78Q172.95-18.32 173.85-17.48Q174.75-16.64 175.20-15.44Q175.64-14.24 175.64-12.75L175.64-12.75L175.64-2.21L180.06-2.21L180.06 0L168.81 0L168.81-2.21L173.20-2.21L173.20-12.03Q173.20-13.52 172.82-14.48Q172.44-15.45 171.74-16.02Q171.04-16.58 170.03-16.81Q169.02-17.03 167.77-17.03L167.77-17.03Q166.31-17.03 164.90-16.64Q163.50-16.25 162.26-15.66Q161.02-15.08 159.97-14.37Q158.93-13.65 158.20-13.01L158.20-13.01L158.20-2.21L162.62-2.21L162.62 0L151.37 0L151.37-2.21L155.76-2.21L155.76-16.41L151.37-16.41Z M181.60-16.41L181.60-18.59L188.44-18.59L188.44-2.21L192.85-2.21L192.85 0L181.60 0L181.60-2.21L186.00-2.21L186.00-16.41L181.60-16.41ZM184.77-23.81L184.77-23.81Q184.77-24.26 184.93-24.66Q185.10-25.06 185.39-25.35Q185.68-25.64 186.07-25.82Q186.46-26.00 186.91-26.00L186.91-26.00Q187.36-26.00 187.76-25.82Q188.16-25.64 188.47-25.35Q188.77-25.06 188.95-24.66Q189.12-24.26 189.12-23.81L189.12-23.81Q189.12-23.36 188.95-22.96Q188.77-22.56 188.47-22.27Q188.16-21.97 187.76-21.81Q187.36-21.64 186.91-21.64L186.91-21.64Q186.46-21.64 186.07-21.81Q185.68-21.97 185.39-22.27Q185.10-22.56 184.93-22.96Q184.77-23.36 184.77-23.81Z M197.29-18.93L195.27-18.93L194.88-26.84L197.68-26.84L197.29-18.93Z M203.44 0L201.25 0L201.25-6.84L203.44-6.84L203.44-5.64Q203.44-4.57 204.17-3.80Q204.90-3.03 206.05-2.53Q207.21-2.03 208.60-1.80Q210-1.56 211.33-1.56L211.33-1.56Q212.89-1.56 214.20-1.73Q215.51-1.89 216.46-2.29Q217.42-2.68 217.95-3.31Q218.48-3.95 218.48-4.88L218.48-4.88Q218.48-5.76 218.00-6.38Q217.52-6.99 216.71-7.40Q215.90-7.81 214.81-8.09Q213.73-8.36 212.51-8.56Q211.29-8.77 210-8.96Q208.71-9.14 207.49-9.40Q206.27-9.67 205.19-10.04Q204.10-10.41 203.29-10.99Q202.48-11.56 202.00-12.38Q201.52-13.20 201.52-14.36L201.52-14.36Q201.52-15.84 202.27-16.79Q203.01-17.73 204.20-18.28Q205.39-18.83 206.90-19.03Q208.42-19.24 209.96-19.24L209.96-19.24Q212.21-19.24 214.08-18.73Q215.96-18.22 217.25-17.40L217.25-17.40L217.25-18.59L219.43-18.59L219.43-12.32L217.25-12.32L217.25-13.77Q217.25-14.39 216.91-14.89Q216.58-15.39 216.02-15.77Q215.45-16.15 214.73-16.42Q214.00-16.68 213.21-16.85Q212.42-17.01 211.63-17.09Q210.84-17.17 210.16-17.17L210.16-17.17Q207.07-17.17 205.50-16.56Q203.93-15.96 203.93-14.36L203.93-14.36Q203.93-13.59 204.40-13.08Q204.88-12.56 205.69-12.20Q206.50-11.84 207.59-11.59Q208.67-11.35 209.89-11.14Q211.11-10.94 212.40-10.73Q213.69-10.53 214.91-10.22Q216.13-9.92 217.22-9.49Q218.30-9.06 219.11-8.43Q219.92-7.79 220.40-6.89Q220.88-6.00 220.88-4.77L220.88-4.77Q220.88-3.69 220.47-2.89Q220.06-2.09 219.38-1.49Q218.69-0.90 217.80-0.51Q216.91-0.12 215.94 0.11Q214.96 0.33 213.96 0.43Q212.97 0.53 212.09 0.53L212.09 0.53Q209.16 0.53 207.00-0.10Q204.84-0.72 203.44-1.72L203.44-1.72L203.44 0Z M238.52-24.65L238.52-26.84L245.35-26.84L245.35-11.07L254.39-16.56Q255.57-17.27 256.53-17.72Q257.50-18.18 258.32-18.45Q259.14-18.71 259.85-18.82Q260.57-18.93 261.23-18.93L261.23-18.93Q262.34-18.93 263.04-18.78Q263.73-18.63 264.24-18.48L264.24-18.48L263.52-16.33Q263.28-16.41 263.05-16.47Q262.81-16.54 262.55-16.60Q262.29-16.66 261.97-16.69Q261.66-16.72 261.23-16.72L261.23-16.72Q260.66-16.72 260.10-16.67Q259.53-16.62 258.87-16.43Q258.20-16.23 257.37-15.85Q256.54-15.47 255.47-14.80L255.47-14.80L250.84-11.99L261.37-2.21L266.41-2.21L266.41 0L255.16 0L255.16-2.21L258.16-2.21L248.96-10.84L245.35-8.63L245.35-2.21L249.77-2.21L249.77 0L238.52 0L238.52-2.21L242.91-2.21L242.91-24.65L238.52-24.65Z M267.56-16.41L267.56-18.59L274.39-18.59L274.39-2.21L278.81-2.21L278.81 0L267.56 0L267.56-2.21L271.95-2.21L271.95-16.41L267.56-16.41ZM270.72-23.81L270.72-23.81Q270.72-24.26 270.89-24.66Q271.05-25.06 271.35-25.35Q271.64-25.64 272.03-25.82Q272.42-26.00 272.87-26.00L272.87-26.00Q273.32-26.00 273.72-25.82Q274.12-25.64 274.42-25.35Q274.73-25.06 274.90-24.66Q275.08-24.26 275.08-23.81L275.08-23.81Q275.08-23.36 274.90-22.96Q274.73-22.56 274.42-22.27Q274.12-21.97 273.72-21.81Q273.32-21.64 272.87-21.64L272.87-21.64Q272.42-21.64 272.03-21.81Q271.64-21.97 271.35-22.27Q271.05-22.56 270.89-22.96Q270.72-23.36 270.72-23.81Z M279.43-16.41L279.43-18.59L284.47-18.59L284.47-25.04L286.91-25.04L286.91-18.59L300-18.59L300-16.41L286.91-16.41L286.91-5.57Q286.91-4.41 287.33-3.65Q287.75-2.89 288.52-2.44Q289.28-1.99 290.34-1.82Q291.41-1.64 292.68-1.64L292.68-1.64Q293.95-1.64 295-1.80Q296.05-1.95 296.91-2.20Q297.77-2.44 298.49-2.76Q299.20-3.09 299.79-3.44L299.79-3.44L301.00-1.48Q300.27-1.07 299.37-0.71Q298.46-0.35 297.40-0.09Q296.35 0.18 295.16 0.33Q293.96 0.49 292.71 0.49L292.71 0.49Q290.84 0.49 289.32 0.18Q287.79-0.14 286.72-0.84Q285.64-1.54 285.06-2.69Q284.47-3.83 284.47-5.49L284.47-5.49L284.47-16.41L279.43-16.41Z M325.96-11.41L323.83-11.41L323.83-12.32Q323.83-13.52 323.08-14.39Q322.32-15.27 321.16-15.84Q320-16.41 318.60-16.68Q317.21-16.95 315.92-16.95L315.92-16.95Q313.73-16.95 311.99-16.43Q310.25-15.90 309.05-14.91Q307.85-13.93 307.22-12.51Q306.58-11.09 306.58-9.32L306.58-9.32Q306.58-7.52 307.21-6.10Q307.83-4.69 309.01-3.69Q310.20-2.70 311.90-2.17Q313.61-1.64 315.78-1.64L315.78-1.64Q317.62-1.64 318.99-1.98Q320.37-2.32 321.33-2.86Q322.29-3.40 322.87-4.06Q323.46-4.73 323.75-5.39L323.75-5.39L326.27-5.39Q325.18-2.50 322.48-1.01Q319.79 0.49 315.66 0.49L315.66 0.49Q313.16 0.49 311.03-0.15Q308.89-0.78 307.33-2.02Q305.78-3.26 304.90-5.09Q304.02-6.91 304.02-9.28L304.02-9.28Q304.02-11.66 304.94-13.50Q305.86-15.33 307.45-16.58Q309.04-17.83 311.18-18.48Q313.32-19.12 315.74-19.12L315.74-19.12Q317.17-19.12 318.40-18.93Q319.63-18.73 320.65-18.39Q321.68-18.05 322.47-17.62Q323.26-17.19 323.83-16.72L323.83-16.72L323.83-18.71L325.96-18.71L325.96-11.41Z M329.06-24.65L329.06-26.84L335.90-26.84L335.90-15.08Q336.82-15.96 337.95-16.71Q339.08-17.46 340.39-18.03Q341.70-18.59 343.14-18.92Q344.59-19.24 346.11-19.24L346.11-19.24Q347.93-19.24 349.29-18.78Q350.64-18.32 351.54-17.48Q352.44-16.64 352.89-15.44Q353.34-14.24 353.34-12.75L353.34-12.75L353.34-2.21L357.75-2.21L357.75 0L346.50 0L346.50-2.21L350.90-2.21L350.90-12.03Q350.90-13.52 350.52-14.48Q350.14-15.45 349.43-16.02Q348.73-16.58 347.72-16.81Q346.72-17.03 345.47-17.03L345.47-17.03Q344.00-17.03 342.60-16.64Q341.19-16.25 339.95-15.66Q338.71-15.08 337.67-14.37Q336.62-13.65 335.90-13.01L335.90-13.01L335.90-2.21L340.31-2.21L340.31 0L329.06 0L329.06-2.21L333.46-2.21L333.46-24.65L329.06-24.65Z M362.81-10.23L379.98-10.23Q379.88-11.56 379.38-12.75Q378.87-13.95 377.85-14.85Q376.84-15.76 375.29-16.30Q373.75-16.84 371.58-16.84L371.58-16.84Q369.55-16.84 367.99-16.30Q366.43-15.76 365.33-14.85Q364.24-13.95 363.61-12.75Q362.99-11.56 362.81-10.23L362.81-10.23ZM371.54 0.49L371.54 0.49Q368.98 0.49 366.90-0.19Q364.82-0.86 363.36-2.12Q361.89-3.38 361.09-5.18Q360.29-6.97 360.29-9.20L360.29-9.20Q360.29-11.37 361.13-13.17Q361.97-14.98 363.48-16.28Q364.98-17.58 367.05-18.29Q369.12-19.00 371.58-19.00L371.58-19.00Q374.14-19.00 376.17-18.28Q378.20-17.56 379.61-16.20Q381.02-14.84 381.76-12.91Q382.50-10.98 382.50-8.55L382.50-8.55L382.50-8.13L362.81-8.13Q362.95-6.64 363.58-5.45Q364.22-4.26 365.33-3.42Q366.45-2.58 368.00-2.13Q369.55-1.68 371.54-1.68L371.54-1.68Q373.46-1.68 374.87-1.99Q376.29-2.30 377.28-2.83Q378.26-3.36 378.88-4.02Q379.49-4.69 379.82-5.39L379.82-5.39L382.27-5.39Q381.11-2.42 378.35-0.97Q375.59 0.49 371.54 0.49Z M385.25-16.41L385.25-18.59L392.09-18.59L392.09-15.08Q393.01-15.96 394.14-16.71Q395.27-17.46 396.58-18.03Q397.89-18.59 399.34-18.92Q400.78-19.24 402.30-19.24L402.30-19.24Q404.12-19.24 405.48-18.78Q406.84-18.32 407.73-17.48Q408.63-16.64 409.08-15.44Q409.53-14.24 409.53-12.75L409.53-12.75L409.53-2.21L413.95-2.21L413.95 0L402.70 0L402.70-2.21L407.09-2.21L407.09-12.03Q407.09-13.52 406.71-14.48Q406.33-15.45 405.63-16.02Q404.92-16.58 403.92-16.81Q402.91-17.03 401.66-17.03L401.66-17.03Q400.20-17.03 398.79-16.64Q397.38-16.25 396.14-15.66Q394.90-15.08 393.86-14.37Q392.81-13.65 392.09-13.01L392.09-13.01L392.09-2.21L396.50-2.21L396.50 0L385.25 0L385.25-2.21L389.65-2.21L389.65-16.41L385.25-16.41Z"/></g>
</svg>
</g></svg></svg>